<?xml version="1.0" standalone="no"?>
<!DOCTYPE svg PUBLIC "-//W3C//DTD SVG 20010904//EN"
 "http://www.w3.org/TR/2001/REC-SVG-20010904/DTD/svg10.dtd">
<svg version="1.0" xmlns="http://www.w3.org/2000/svg"
 width="422.000000pt" height="323.000000pt" viewBox="0 0 422.000000 323.000000"
 preserveAspectRatio="xMidYMid meet">
<g transform="translate(0.000000,323.000000) scale(0.100000,-0.100000)"
fill="#7a1d2c" stroke="none">
<path d="M1050 3193 c-68 -18 -103 -22 -173 -19 l-88 4 -29 -43 c-33 -48 -87
-98 -128 -118 -15 -8 -80 -26 -144 -41 -86 -20 -126 -35 -152 -55 -19 -16 -61
-35 -93 -44 l-58 -17 -57 -102 c-66 -122 -103 -194 -113 -227 -6 -20 -1 -30
28 -55 26 -22 46 -55 69 -116 l34 -85 91 -55 c127 -77 158 -103 183 -154 19
-41 20 -51 11 -99 -13 -58 -105 -254 -170 -360 -66 -109 -46 -128 83 -81 39
14 100 28 136 31 57 5 69 2 93 -17 l28 -22 -49 -33 c-103 -70 -127 -137 -51
-143 68 -5 135 -23 201 -53 62 -29 68 -35 91 -88 14 -32 81 -129 157 -226 77
-98 136 -182 140 -200 4 -22 16 -36 45 -51 34 -17 41 -26 47 -63 8 -49 97
-187 155 -242 21 -20 72 -51 113 -69 72 -32 82 -34 240 -41 96 -4 213 -16 280
-29 72 -13 186 -24 305 -30 145 -6 238 -17 390 -44 189 -33 209 -39 355 -102
85 -36 173 -75 194 -86 36 -19 53 -20 190 -15 218 7 248 18 358 127 48 48 95
104 103 124 18 42 31 147 21 172 -6 15 -12 12 -40 -19 -40 -44 -54 -46 -62 -9
-12 56 -14 57 -45 19 -17 -20 -34 -37 -38 -37 -5 0 -11 26 -15 58 -4 31 -11
64 -17 72 -9 13 -12 13 -22 -3 -7 -10 -25 -39 -42 -65 -42 -64 -55 -65 -55 -5
0 77 -11 82 -60 29 -23 -25 -48 -46 -54 -46 -7 0 -11 33 -11 103 0 56 -4 114
-8 129 -8 29 -37 39 -37 13 0 -48 -85 -161 -144 -192 -27 -14 -28 -14 -21 3 4
11 10 38 12 62 l6 42 -58 -30 c-31 -16 -63 -30 -70 -30 -9 0 -14 24 -17 89 -2
70 -7 93 -22 110 -24 26 -27 23 -56 -56 -12 -35 -27 -63 -32 -63 -5 0 -25 8
-46 19 -20 10 -49 21 -63 24 -26 7 -27 8 -22 71 6 67 -2 136 -16 136 -4 0 -25
-25 -46 -55 -20 -30 -38 -55 -40 -55 -1 0 0 22 3 49 5 52 -3 101 -16 101 -4 0
-22 -25 -41 -56 -18 -30 -38 -53 -44 -51 -8 2 -10 31 -8 85 2 50 -1 82 -7 82
-6 0 -22 -20 -36 -45 -15 -25 -30 -45 -34 -45 -4 0 -22 41 -41 91 -35 93 -36
94 -81 75 -24 -10 -108 83 -165 181 l-50 87 -75 19 c-78 19 -139 56 -300 177
-106 80 -179 101 -323 93 -70 -4 -107 -2 -107 4 0 29 55 63 128 79 70 15 82
22 134 70 l57 54 99 0 c78 0 123 6 213 30 63 16 133 30 156 30 65 0 276 -39
285 -53 4 -6 8 -34 8 -62 l1 -50 44 48 45 49 0 -46 c0 -25 4 -46 10 -46 5 0
23 18 41 40 18 22 36 37 40 34 5 -3 9 -25 9 -50 0 -57 18 -58 61 -4 18 22 36
40 41 40 4 0 8 -39 8 -87 l1 -88 29 34 c16 18 39 53 52 77 13 24 26 44 29 44
4 0 10 -44 15 -97 l9 -98 46 70 c25 39 54 83 64 99 22 36 28 27 52 -72 9 -40
21 -71 27 -69 6 2 23 32 37 67 l27 62 11 -83 c7 -46 15 -111 19 -144 l7 -59
27 29 c28 30 102 172 114 219 3 14 10 26 14 26 9 0 20 -50 20 -91 0 -16 4 -29
9 -29 9 0 70 152 92 230 7 25 15 48 19 53 3 4 19 -34 35 -85 16 -51 30 -95 32
-97 8 -11 27 23 59 100 18 46 34 75 34 65 0 -39 43 -246 49 -241 4 2 32 65 61
139 55 137 70 151 70 69 0 -24 5 -43 10 -43 6 0 23 20 39 44 l28 45 10 -27 10
-27 19 32 c26 44 38 41 30 -7 -8 -52 5 -51 31 3 l21 42 11 -28 c6 -16 11 -39
11 -53 0 -55 33 -13 47 61 7 37 18 45 61 45 33 0 33 1 27 33 -14 61 -74 262
-100 332 -30 79 -47 104 -159 228 -119 134 -108 128 -526 258 -248 77 -214 71
-820 139 -309 35 -389 47 -520 81 -177 46 -348 101 -402 132 -35 19 -42 20
-108 7 l-71 -13 -59 41 c-32 23 -66 42 -73 42 -8 0 -59 11 -113 25 -55 14
-106 27 -114 29 -8 2 -53 -8 -100 -21z m598 -345 c34 -28 82 -170 82 -245 0
-72 -42 -240 -91 -360 -12 -28 -11 -34 6 -53 19 -21 38 -22 76 -6 10 5 19 -1
27 -18 9 -21 8 -26 -13 -40 -49 -32 -76 -20 -199 88 -54 48 -83 65 -135 81
-79 25 -85 40 -39 94 33 39 33 41 27 108 -4 49 -1 88 12 139 10 39 21 104 25
143 4 49 12 75 23 82 22 13 179 3 199 -13z m-672 -15 c15 -16 33 -41 41 -57
26 -50 53 -206 53 -307 0 -87 4 -109 40 -213 39 -113 40 -119 30 -184 -6 -37
-15 -84 -21 -105 l-10 -39 -137 7 c-131 7 -139 9 -174 37 -33 26 -37 33 -31
61 3 17 46 91 94 165 48 73 95 156 104 182 15 45 15 54 0 108 l-17 60 -86 11
c-48 5 -118 13 -155 17 -53 5 -71 12 -82 28 -24 33 -18 52 28 89 69 57 258
167 285 167 7 0 24 -12 38 -27z m1205 -93 c57 -16 174 -55 259 -87 174 -65
222 -100 255 -187 31 -82 -1 -171 -99 -274 -67 -71 -84 -77 -221 -75 -181 2
-232 13 -317 70 -40 26 -90 65 -111 85 l-40 38 5 113 c5 100 9 122 35 178 17
35 34 75 38 89 28 92 41 95 196 50z m1473 -164 c64 -23 277 -164 302 -200 16
-24 19 -56 4 -56 -13 0 -74 30 -210 102 -58 31 -121 61 -140 67 -37 12 -140
95 -140 113 0 16 112 0 184 -26z m-654 -166 c17 -32 11 -65 -17 -92 -32 -28
-95 -68 -110 -68 -12 0 -33 76 -33 117 0 44 22 77 60 89 30 10 39 9 63 -8 15
-11 32 -28 37 -38z"/>
</g>
</svg>
