<?xml version="1.0" encoding="utf-8"?>
<svg id="master-artboard" viewBox="0 0 1400 980" version="1.1" xmlns="http://www.w3.org/2000/svg" x="0px" y="0px" style="enable-background:new 0 0 1400 980;" width="1400px" height="980px"><rect id="ee-background" x="0" y="0" width="1400" height="980" style="fill: white; fill-opacity: 0; pointer-events: none;"/>


<g transform="matrix(40.833333333333336, 0, 0, 40.833333333333336, 210.00001256509586, -0.000004188364982837811)"><path d="M11.998 2.5A9.503 9.503 0 003.378 8H5.75a.75.75 0 010 1.5H2a1 1 0 01-1-1V4.75a.75.75 0 011.5 0v1.697A10.997 10.997 0 0111.998 1C18.074 1 23 5.925 23 12s-4.926 11-11.002 11C6.014 23 1.146 18.223 1 12.275a.75.75 0 011.5-.037 9.5 9.5 0 009.498 9.262c5.248 0 9.502-4.253 9.502-9.5s-4.254-9.5-9.502-9.5z" style="fill: url('#gradient-0');"/><path d="M12.5 7.25a.75.75 0 00-1.5 0v5.5c0 .27.144.518.378.651l3.5 2a.75.75 0 00.744-1.302L12.5 12.315V7.25z" style="fill: url('#gradient-1');"/></g><path d="M12.5 7.25a.75.75 0 00-1.5 0v5.5c0 .27.144.518.378.651l3.5 2a.75.75 0 00.744-1.302L12.5 12.315V7.25z" transform="matrix(-40.83333206176758, 0, 0, 40.83333206176758, 1169.9451970745858, -0.16023185849188337)"/><defs><radialGradient id="gradient-0" gradientUnits="objectBoundingBox" cx="0.5" cy="0.5" r="0.5">
                <stop offset="0" style="stop-color: #000000"/>
                <stop offset="1" style="stop-color: #000000"/>
              </radialGradient><radialGradient id="gradient-1" gradientUnits="objectBoundingBox" cx="0.5" cy="0.5" r="0.5">
                <stop offset="0" style="stop-color: #000000"/>
                <stop offset="1" style="stop-color: #000000"/>
              </radialGradient></defs></svg>